<svg xmlns="http://www.w3.org/2000/svg" viewBox="0 0 200 60" fill="none">
  <!-- Shield Icon -->
  <g transform="translate(5, 5)">
    <path d="M20 5L5 12v10c0 13.3 6.4 25.8 15 30 8.6-4.2 15-16.7 15-30V12L20 5z"
          fill="none"
          stroke="#00A8E8"
          stroke-width="2"/>
    <path d="M20 10L10 15v7c0 10 4.8 19.3 10 22.5 5.2-3.2 10-12.5 10-22.5V15L20 10z"
          fill="rgba(0, 168, 232, 0.15)"/>
    <!-- Lock -->
    <rect x="14" y="22" width="12" height="10" rx="2" fill="#00A8E8"/>
    <path d="M17 22v-3a3 3 0 0 1 6 0v3" stroke="#00A8E8" stroke-width="2" fill="none"/>
    <circle cx="20" cy="27" r="1.5" fill="#000"/>
  </g>

  <!-- J.O.E. Text -->
  <text x="50" y="38"
        font-family="Arial Black, sans-serif"
        font-size="32"
        font-weight="900"
        fill="#00A8E8">J.O.E.</text>

  <!-- Joint Operations Engine -->
  <text x="50" y="52"
        font-family="Nunito Sans, Arial, sans-serif"
        font-size="8"
        fill="#6B7280"
        letter-spacing="1">JOINT OPERATIONS ENGINE</text>
</svg>
